<?xml version="1.0" encoding="UTF-8"?>
<svg xmlns="http://www.w3.org/2000/svg" xmlns:xlink="http://www.w3.org/1999/xlink" width="87px" height="85px" viewBox="0 0 32 32" version="1.1">
<g id="surface1">
<path style=" stroke:none;fill-rule:nonzero;fill:rgb(16.862745%,73.333333%,90.196078%);fill-opacity:1;" d="M 31.65625 19.199219 C 31.410156 22.5 28.601562 25 25.253906 25.101562 C 25.007812 25.101562 24.8125 25.101562 24.566406 25.101562 C 20.875 24.851562 18.117188 21.800781 18.363281 18.300781 C 18.414062 17.5 18.609375 16.75 18.953125 16.101562 C 20.085938 13.75 22.597656 12.25 25.453125 12.449219 C 29.09375 12.648438 31.902344 15.699219 31.65625 19.199219 Z M 31.65625 19.199219 "/>
<path style=" stroke:none;fill-rule:nonzero;fill:rgb(16.862745%,73.333333%,90.196078%);fill-opacity:1;" d="M 15.605469 24.898438 L 18.660156 16.601562 L 25.207031 25.101562 Z M 15.605469 24.898438 "/>
<path style=" stroke:none;fill-rule:nonzero;fill:rgb(12.941176%,31.764706%,63.529412%);fill-opacity:1;" d="M 26.09375 15.351562 C 26.09375 20.625 21.882812 24.898438 16.6875 24.898438 C 11.496094 24.898438 7.285156 20.625 7.285156 15.351562 C 7.285156 10.074219 11.496094 5.800781 16.6875 5.800781 C 21.882812 5.800781 26.09375 10.074219 26.09375 15.351562 Z M 26.09375 15.351562 "/>
<path style=" stroke:none;fill-rule:nonzero;fill:rgb(19.607843%,50.588235%,76.862745%);fill-opacity:1;" d="M 0.34375 19.199219 C 0.589844 22.5 3.398438 25 6.746094 25.101562 C 6.992188 25.101562 7.1875 25.101562 7.433594 25.101562 C 11.125 24.851562 13.882812 21.800781 13.636719 18.300781 C 13.585938 17.5 13.390625 16.75 13.046875 16.101562 C 11.914062 13.75 9.402344 12.25 6.546875 12.449219 C 2.855469 12.648438 0.0976562 15.699219 0.34375 19.199219 Z M 0.34375 19.199219 "/>
<path style=" stroke:none;fill-rule:nonzero;fill:rgb(19.607843%,50.588235%,76.862745%);fill-opacity:1;" d="M 16.34375 24.898438 L 13.292969 16.601562 L 6.792969 25.101562 Z M 16.34375 24.898438 "/>
</g>
</svg>
